<svg xmlns="http://www.w3.org/2000/svg" xmlns:xlink="http://www.w3.org/1999/xlink" width="3568" height="2105.544" viewBox="0 0 3568 2105.544">
  <defs>
    <linearGradient id="linear-gradient" x1="0.5" x2="0.5" y2="1" gradientUnits="objectBoundingBox">
      <stop offset="0" stop-color="#05ff48"/>
      <stop offset="1" stop-color="#1a7417"/>
    </linearGradient>
    <linearGradient id="linear-gradient-5" x1="0.893" y1="0.097" x2="0.222" y2="0.746" gradientUnits="objectBoundingBox">
      <stop offset="0" stop-color="#33e82d"/>
      <stop offset="0.734" stop-color="#1c7c18"/>
      <stop offset="1" stop-color="#1a7417"/>
    </linearGradient>
    <linearGradient id="linear-gradient-6" x1="0.5" x2="0.5" y2="1" gradientUnits="objectBoundingBox">
      <stop offset="0" stop-color="#eb3939"/>
      <stop offset="0.678" stop-color="#a51919"/>
      <stop offset="1" stop-color="#761d1d"/>
    </linearGradient>
    <linearGradient id="linear-gradient-13" x1="0.578" y1="0.018" x2="0.969" y2="0.81" gradientUnits="objectBoundingBox">
      <stop offset="0" stop-color="#f6d8b1"/>
      <stop offset="0.481" stop-color="#f5d7b0"/>
      <stop offset="1" stop-color="#b89d7c"/>
    </linearGradient>
    <linearGradient id="linear-gradient-14" x1="0.471" y1="0.03" x2="0.5" y2="1" gradientUnits="objectBoundingBox">
      <stop offset="0" stop-color="#989797"/>
      <stop offset="0.022" stop-color="#d0b28b"/>
      <stop offset="1" stop-color="#a8a49b"/>
    </linearGradient>
  </defs>
  <g id="Group_13" data-name="Group 13" transform="translate(2337 1720.352)">
    <g id="Group_10" data-name="Group 10" transform="translate(-387.549 -655.351) rotate(-54)">
      <path id="Union_14" data-name="Union 14" d="M125.168,0s282.428,315.413.487,645.413C-156.785,314.986,125.168,0,125.168,0Z" transform="translate(89.824) rotate(8)" fill="url(#linear-gradient)"/>
    </g>
    <g id="Group_9" data-name="Group 9" transform="translate(-3271.301 36.012) rotate(107)">
      <path id="Union_14-2" data-name="Union 14" d="M108.8,0s244.8,233.672,0,478.475C-136,233.672,108.8,0,108.8,0Z" transform="translate(-1647.233 -2548.295) rotate(-15.009)" fill="url(#linear-gradient)"/>
    </g>
    <g id="Group_6" data-name="Group 6" transform="matrix(0.485, -0.875, 0.875, 0.485, 3038.66, -814.875)">
      <path id="Union_14-3" data-name="Union 14" d="M198.752,0s447.191,496.875,0,1017.42C-248.44,496.875,198.752,0,198.752,0Z" transform="translate(-1310.194 -2557.477) rotate(8)" fill="url(#linear-gradient)"/>
    </g>
    <g id="Group_8" data-name="Group 8" transform="matrix(-0.629, 0.777, -0.777, -0.629, -2410.938, -1558.692)">
      <path id="Union_14-4" data-name="Union 14" d="M180.621,0s406.4,387.919,0,794.317C-225.776,387.919,180.621,0,180.621,0Z" transform="matrix(0.985, -0.174, 0.174, 0.985, -1561.904, -2523.255)" fill="url(#linear-gradient)"/>
    </g>
    <path id="Path_45" data-name="Path 45" d="M93.927-2530.08c-87.779,53.326-170.484,120.485-248.153,197-96.6,95.165-185.142,204.835-264.827,319.358-53.513,76.909-102.921,155.775-148.253,234.059-84.914,146.637-155.432,291.171-210.423,414.727-94.063,211.344-143.413,362.545-143.413,362.545h-129.812s18.559-45.456,383-777.272c48.133-96.654,96.834-163.192,145.286-234.059,87.189-127.527,173.175-234.977,251.891-319.358,207.451-222.377,364.7-315.238,364.7-315.238Z" transform="translate(-685.247 1253.973) rotate(25)" fill="url(#linear-gradient-5)"/>
    <g id="Group_4" data-name="Group 4" transform="translate(-138 52)">
      <g id="Group_12" data-name="Group 12" transform="translate(-527.815 -320.03) rotate(10)">
        <path id="Path_44" data-name="Path 44" d="M115.862,0S-70.51,107.387,29.5,220.6,241.322,356.075,241.322,356.075,362.69,321.24,426.329,279.146,523.151,430.1,704.977,356.075,935.441,220.6,935.441,220.6,1002.26,85.661,789.98,62.9,115.862,0,115.862,0Z" transform="translate(638.281 -1392.354) rotate(35.025)" stroke="#000" stroke-width="1" fill="url(#linear-gradient-6)"/>
        <path id="Union_13" data-name="Union 13" d="M399.937,381.531c54.656-55.932,105.13-111.337,139.119-149.445,18.164-4.619,28.7-7.488,28.7-7.488s-2.041-6.715-6.294-17.815c13.493-15.35,21.218-24.359,21.218-24.359s-18.4-17.436-48.8-34.967C475.5,41.484,337.357-110.949,86.351,123.428c-105.22,98.25-104.124,146.7-50.844,166.34C-42.341,415.082,19.69,432.235,124.92,406.253c-2.266,6.063-4.5,12.21-6.74,18.508-46.363,130.631-38.633,178.6-1.37,177.569C172.514,600.783,294.222,489.715,399.937,381.531Z" transform="translate(808.308 -1616.438) rotate(30)" stroke="#000" stroke-width="1" fill="url(#linear-gradient-6)"/>
        <path id="Union_12" data-name="Union 12" d="M190.789,371.909C133.775,316.094,81.074,260.877,45.575,222.914c-18.763-4.882-29.652-7.9-29.652-7.9s2.013-6.529,6.245-17.3C8.073,182.423,0,173.454,0,173.454s18.714-16.692,49.79-33.237c58.7-102.518,198.931-248.9,460.471-14.573C619.9,223.872,619.407,271.252,564.807,289.406c81.809,124.162,18.167,139.706-90.525,112.184,2.413,5.977,4.8,12.036,7.184,18.243,49.462,128.735,42.136,175.518,3.755,173.761C427.846,590.968,301.065,479.868,190.789,371.909Z" transform="matrix(0.719, 0.695, -0.695, 0.719, 1115.111, -1480.412)" stroke="#000" stroke-width="1" fill="url(#linear-gradient-6)"/>
        <path id="Union_7" data-name="Union 7" d="M118.964,194.324c-35.632-27.561-68.483-54.915-90.594-73.739C16.331,118.5,9.349,117.2,9.349,117.2s1.455-3.431,4.446-9.114C5.021,100.5,0,96.044,0,96.044s12.507-9.093,33.017-18.4c40.4-54.51,134.609-133.686,298.562-18.5,68.728,48.284,67.313,72.843,31.53,83.547,50.105,62.382,8.527,71.949-61.229,60.275,1.424,3.039,2.829,6.122,4.23,9.281,29.05,65.52,23.22,89.933-1.6,89.936C267.415,302.178,187.881,247.634,118.964,194.324Z" transform="translate(1100.456 -1293.43) rotate(35.025)" fill="none" stroke="#000" stroke-width="1"/>
        <path id="Union_8" data-name="Union 8" d="M118.964,194.324c-35.632-27.561-68.483-54.915-90.594-73.739C16.331,118.5,9.349,117.2,9.349,117.2s1.455-3.431,4.446-9.114C5.021,100.5,0,96.044,0,96.044s12.507-9.093,33.017-18.4c40.4-54.51,134.609-133.686,298.562-18.5,68.728,48.284,67.313,72.843,31.53,83.547,50.105,62.382,8.527,71.949-61.229,60.275,1.424,3.039,2.829,6.122,4.23,9.281,29.05,65.52,23.22,89.933-1.6,89.936C267.415,302.178,187.881,247.634,118.964,194.324Z" transform="translate(1100.456 -1293.43) rotate(35.025)" stroke="#000" stroke-width="1" fill="url(#linear-gradient-6)"/>
        <path id="Union_9" data-name="Union 9" d="M254.521,194.324c33.789-27.561,64.942-54.915,85.909-73.739,11.416-2.083,18.037-3.387,18.037-3.387s-1.38-3.431-4.216-9.114c8.321-7.585,13.082-12.04,13.082-12.04s-11.86-9.093-31.31-18.4C297.715,23.129,208.375-56.046,52.9,59.136-12.274,107.42-10.932,131.979,23,142.683c-47.514,62.382-8.086,71.949,58.063,60.275-1.35,3.039-2.683,6.122-4.011,9.281-27.547,65.52-22.019,89.933,1.514,89.936C113.746,302.178,189.167,247.634,254.521,194.324Z" transform="translate(850.004 -1468.799) rotate(35.025)" stroke="#000" stroke-width="1" fill="url(#linear-gradient-6)"/>
        <path id="Union_11" data-name="Union 11" d="M254.521,194.324c33.789-27.561,64.942-54.915,85.909-73.739,11.416-2.083,18.037-3.387,18.037-3.387s-1.38-3.431-4.216-9.114c8.321-7.585,13.082-12.04,13.082-12.04s-11.86-9.093-31.31-18.4C297.715,23.129,208.375-56.046,52.9,59.136-12.274,107.42-10.932,131.979,23,142.683c-47.514,62.382-8.086,71.949,58.063,60.275-1.35,3.039-2.683,6.122-4.011,9.281-27.547,65.52-22.019,89.933,1.514,89.936C113.746,302.178,189.167,247.634,254.521,194.324Z" transform="translate(897.014 -1360.171) rotate(35.025)" stroke="#000" stroke-width="1" fill="url(#linear-gradient-6)"/>
        <path id="Union_10" data-name="Union 10" d="M121.728,194.324c-36.459-27.561-70.074-54.915-92.7-73.739C16.711,118.5,9.566,117.2,9.566,117.2s1.489-3.431,4.549-9.114C5.137,100.5,0,96.044,0,96.044s12.8-9.093,33.784-18.4c41.336-54.51,137.736-133.686,305.5-18.5,70.324,48.284,68.877,72.843,32.263,83.547,51.269,62.382,8.725,71.949-62.652,60.275,1.457,3.039,2.895,6.122,4.328,9.281,29.724,65.52,23.76,89.933-1.634,89.936C273.628,302.178,192.246,247.634,121.728,194.324Z" transform="matrix(0.602, 0.799, -0.799, 0.602, 1025.31, -1247.495)" stroke="#000" stroke-width="1" fill="url(#linear-gradient-6)"/>
      </g>
      <text id="E_N_D_R_S_" data-name="E N D R    S " transform="translate(-2198 -831)" fill="#515050" stroke="#707070" stroke-width="1" font-size="700" font-family="SegoeUI-Semibold, Segoe UI" font-weight="600"><tspan x="0" y="0" xml:space="preserve">E N D R    S</tspan></text>
      <path id="Path_5" data-name="Path 5" d="M314.848,518.005,286.7,275.746s5.9-58.968,78.132-121.376S637.559-25.974,738.787,124.886,750.3,139.752,750.3,139.752s165.386-28.625,165.386,168.426-23.1,275.184-23.1,275.184l-485.011-22.6Z" transform="translate(-1326.795 -1530)" fill="#090909"/>
      <path id="Union_4" data-name="Union 4" d="M86.2,491.37c-6.365,11.1-16.224,17.722-29.985,19.656C38.055,513.578,26.636,498,25.252,470.767c-1.137-22.237-4.033-36.1-11.99-61.611C4.545,381.2,1.94,366.133.132,345.856c-1.406-15.448,8.558-26.407,25.12-28.734,15.426-2.168,28.6,3.475,39.253,15.769C60.259,152.883,114.551,6.529,295.733.2,470.765-5.908,542.529,126.41,554.9,297.562c8.228-8.77,18.354-13.156,30.294-12.53,15.753.823,25.987,10.835,25.89,26.345-.093,20.357-1.349,35.593-7.328,64.22-5.453,26.12-7.076,40.184-6.382,62.425.854,27.243-8.642,43.788-25.921,42.881-10.833-.568-19.409-4.578-25.933-11.882-24.8,115.8-92.671,199.321-226.292,203.987q-5.657.2-11.164.2C184.072,673.206,117.12,598.661,86.2,491.37Z" transform="translate(-1011.947 -1327.851)" fill="url(#linear-gradient-13)"/>
      <g id="Group_1" data-name="Group 1" transform="translate(-977.611 -1122.835)">
        <path id="Union_2" data-name="Union 2" d="M60.536,107.379c0-5.511-.111-10.856-.165-16.007l-2.736.192-24.178,1.69-32.9,2.3L0,87.65s30.719-5.687,60.333-7.757l.09-.006c.92-33.879,10.925-57.154,87.628-60.022,57.968-2.168,77.844,12.555,84.49,35.2,13.442-1.81,29.079-3.607,44.5-4.685,12.053-.844,23.972-1.247,34.762-1.4C315.139,21.269,330.781,2.746,398.661.211c70.079-2.62,84.485,19.448,87.152,50.344q1.018-.077,2.034-.148a533.567,533.567,0,0,1,58.126-.522l.553,7.9-31.17,2.18L486.34,62c.122,8.221-.165,16.881-.165,25.725,0,48.335-39.18,80.615-87.514,80.615s-87.51-32.281-87.51-80.615c0-8.445-.261-16.5-.178-24.066l-37.613,2.63-32.96,2.3-5.314.371c1.148,11.771.476,24.874.476,38.415,0,48.33-39.18,80.611-87.51,80.611S60.536,155.709,60.536,107.379Z" fill="#020202"/>
        <path id="Path_7" data-name="Path 7" d="M81.962.161C171.747-3.2,163.775,36.79,163.775,81.975s-36.629,75.361-81.814,75.361S.148,127.159.148,81.975-7.824,3.517,81.962.161Z" transform="translate(66.886 25.741)" fill="#999"/>
        <path id="Path_8" data-name="Path 8" d="M82.747.163c90.645-3.389,82.6,36.98,82.6,82.6s-36.98,76.083-82.6,76.083S.15,128.378.15,82.76-7.9,3.551,82.747.163Z" transform="translate(317.237 4.577)" fill="#999"/>
      </g>
      <g id="Group_2" data-name="Group 2" transform="translate(-771.338 -1035.929)">
        <path id="Union_3" data-name="Union 3" d="M66.093,141.554V3.185s8.557-7.9,15.021,1.189c6.572,9.24,10.178,33.918,16.755,44.784,20.39,33.672,39.2,74.463,26.054,96-7.509,12.3-16,16.515-24.129,16.515C82.054,161.669,66.093,141.554,66.093,141.554Zm-61.45,3.6c-13.97-21.535,6.017-62.325,27.685-96C39.318,38.288,43.149,13.61,50.134,4.37,57-4.718,66.093,3.185,66.093,3.185V141.554S49.132,161.669,30.281,161.67c-8.632,0-17.66-4.217-25.638-16.515Z" transform="translate(0 11.181) rotate(-4.992)" fill="#f0d1ab"/>
        <path id="Union_5" data-name="Union 5" d="M49.223,108.1V2.433S55.6-3.6,60.41,3.34c4.9,7.056,7.58,25.9,12.478,34.2,15.185,25.715,29.193,56.866,19.4,73.311-5.592,9.392-11.92,12.612-17.97,12.612C61.109,123.464,49.223,108.1,49.223,108.1ZM3.458,110.85C-6.942,94.4,7.939,63.25,24.076,37.539c5.206-8.3,8.059-27.144,13.261-34.2,5.111-6.944,11.886-.908,11.886-.908V108.1s-12.632,15.362-26.671,15.362c-6.429,0-13.152-3.218-19.094-12.61Z" transform="translate(19.579 30.013) rotate(-4.992)" fill="#f1c792"/>
      </g>
      <path id="Union_6" data-name="Union 6" d="M2.72,38.645l159.956-8.381s-18.265,20.95-51.992,29.49A128.907,128.907,0,0,1,79.413,63.4C52.515,63.4,22.862,56.018,2.72,38.645ZM52.992,3.914c32.5-8.827,81.163-3.507,110.432,24L0,36.482S18.562,13.259,52.992,3.914Z" transform="matrix(0.999, -0.035, 0.035, 0.999, -771.441, -847.439)" fill="url(#linear-gradient-14)"/>
      <path id="Path_22" data-name="Path 22" d="M591.722,41.536S504.3,35.482,417.024,54.91C350.04,69.82,282.707,100.818,260.349,163.177,209.766,304.26,282.028,290.5,282.028,290.5s270.639-84.822,309.7-165.17S591.722,41.536,591.722,41.536Z" transform="translate(-1230.003 -1448.984)" fill="#707070"/>
    </g>
  </g>
</svg>
